<?xml version="1.0" standalone="no"?>
<!DOCTYPE svg PUBLIC "-//W3C//DTD SVG 20010904//EN"
 "http://www.w3.org/TR/2001/REC-SVG-20010904/DTD/svg10.dtd">
<svg version="1.0" xmlns="http://www.w3.org/2000/svg"
 width="1024.000000pt" height="1024.000000pt" viewBox="0 0 1024.000000 1024.000000"
 preserveAspectRatio="xMidYMid meet">

<g transform="translate(0.000000,1024.000000) scale(0.100000,-0.100000)"
fill="#000000" stroke="none">
<path d="M0 5120 l0 -5120 5120 0 5120 0 0 5120 0 5120 -5120 0 -5120 0 0
-5120z m5257 4030 c177 -24 301 -63 400 -126 64 -40 219 -193 329 -324 115
-137 106 -107 115 -388 13 -365 13 -363 59 -401 21 -17 50 -55 65 -85 40 -81
37 -143 -15 -291 -50 -145 -53 -150 -98 -197 -31 -33 -36 -45 -37 -88 l0 -50
95 -36 c270 -104 477 -214 758 -401 225 -150 230 -153 476 -226 75 -22 82 -23
155 -9 93 17 217 4 299 -33 28 -13 52 -21 52 -17 0 4 5 -1 11 -11 6 -9 16 -14
22 -11 7 4 9 4 5 -1 -4 -4 8 -26 27 -48 19 -22 39 -54 45 -71 7 -23 24 -38 65
-60 115 -60 246 -205 329 -364 96 -188 126 -318 136 -597 7 -210 7 -210 41
-287 29 -65 41 -82 81 -108 58 -39 158 -144 194 -206 60 -101 111 -297 99
-378 -3 -22 -13 -80 -22 -127 -15 -81 -15 -91 0 -155 17 -66 27 -86 101 -184
34 -46 88 -176 100 -240 5 -27 15 -40 44 -57 59 -33 96 -94 96 -158 1 -45 -4
-61 -33 -101 l-34 -49 -3 -173 c-3 -209 -12 -234 -107 -313 -109 -89 -156
-175 -155 -281 1 -75 -16 -121 -59 -158 -39 -35 -35 -33 -223 -102 -228 -84
-307 -108 -360 -108 -58 0 -113 20 -150 54 -20 19 -41 25 -100 30 -402 34
-742 314 -879 722 -27 80 -30 85 -41 63 -7 -13 -37 -57 -67 -97 -54 -73 -55
-74 -58 -153 -3 -65 0 -86 15 -112 43 -73 70 -181 70 -280 0 -72 5 -105 20
-139 11 -25 25 -90 31 -144 6 -54 17 -112 24 -129 22 -49 26 -71 17 -96 -8
-20 -4 -31 22 -60 17 -20 51 -74 75 -120 25 -46 64 -109 87 -139 78 -100 131
-236 99 -249 -5 -2 -38 42 -73 99 -34 57 -77 122 -95 144 -18 23 -50 77 -72
120 -22 43 -58 100 -81 125 -37 43 -39 48 -27 71 18 34 17 42 -12 85 -15 22
-23 44 -20 55 10 33 -15 193 -36 229 -17 29 -21 54 -22 155 -2 114 -4 125 -35
191 -18 38 -40 77 -48 86 -13 14 -13 24 -4 60 7 24 9 64 6 89 -6 44 -4 49 38
98 24 28 70 92 102 142 69 109 69 109 120 -39 63 -186 139 -316 257 -438 163
-169 365 -265 587 -279 90 -6 97 -8 130 -40 20 -18 55 -38 81 -45 39 -11 53
-10 110 8 133 42 431 152 454 167 44 29 57 61 64 159 10 128 30 166 146 273
54 49 98 99 104 116 14 39 14 271 1 317 -9 32 -7 37 30 77 47 51 57 83 41 135
-9 31 -23 47 -59 70 -25 16 -51 29 -58 29 -7 0 -16 31 -23 77 -14 95 -52 179
-115 257 -55 67 -72 104 -91 195 -13 60 -13 69 7 125 27 78 29 222 5 315 -39
147 -136 280 -262 362 -50 32 -65 48 -70 73 -4 17 -20 61 -36 98 -28 64 -29
73 -29 220 0 237 -32 406 -108 571 -79 170 -180 292 -315 380 -62 41 -84 61
-102 97 -68 133 -244 194 -435 151 -53 -12 -61 -11 -198 29 -168 48 -240 78
-296 124 -100 81 -399 267 -553 344 -108 55 -346 156 -415 178 l-58 18 0 81
c0 80 0 82 36 116 45 43 57 67 106 208 50 144 50 208 1 268 -23 29 -74 68 -90
68 -1 0 -6 133 -13 295 -6 162 -13 309 -16 327 -10 64 -305 387 -424 465 -124
80 -272 112 -510 112 -173 0 -233 -8 -361 -50 -143 -46 -195 -90 -400 -336
l-147 -177 -6 -128 c-3 -70 -11 -210 -18 -311 -11 -182 -11 -183 -37 -197 -64
-33 -101 -96 -101 -170 0 -48 38 -205 70 -286 22 -56 64 -109 87 -109 10 0 13
-22 13 -88 l0 -88 -52 -18 c-304 -106 -704 -321 -962 -516 -84 -63 -104 -73
-253 -124 l-161 -54 -52 15 c-37 11 -82 14 -154 11 -84 -3 -110 -9 -158 -31
-61 -30 -112 -81 -134 -133 -10 -24 -33 -44 -81 -73 -215 -127 -354 -328 -434
-626 -17 -65 -22 -119 -26 -285 -5 -186 -7 -210 -29 -261 -12 -31 -28 -76 -34
-101 -9 -33 -19 -49 -38 -57 -91 -42 -236 -198 -292 -316 -55 -116 -58 -278
-6 -391 l25 -53 -21 -86 c-20 -85 -25 -94 -120 -228 -43 -59 -77 -147 -85
-219 -5 -45 -9 -50 -42 -64 -107 -45 -133 -160 -53 -237 28 -27 29 -29 23
-115 -11 -193 -8 -244 19 -288 14 -23 48 -61 75 -84 100 -84 110 -97 129 -156
10 -33 22 -101 26 -153 7 -91 8 -96 39 -122 18 -14 82 -43 144 -64 62 -21 156
-55 210 -77 55 -21 115 -38 137 -38 35 0 43 5 68 40 l27 39 105 1 c118 2 168
12 112 25 -18 4 -32 9 -29 11 2 2 27 -1 56 -7 29 -6 63 -8 76 -5 14 4 55 38
91 76 37 38 70 68 72 65 3 -3 -9 -27 -26 -55 -17 -27 -29 -50 -27 -50 2 0 49
36 104 80 212 171 347 352 422 570 14 39 33 67 66 97 26 24 51 43 57 43 6 0
35 -39 65 -87 30 -47 77 -114 104 -147 l49 -61 -5 -107 c-4 -100 -6 -108 -36
-145 -41 -51 -73 -173 -70 -268 2 -61 -1 -75 -23 -107 -30 -44 -63 -167 -55
-207 5 -21 0 -33 -24 -55 -32 -30 -39 -83 -18 -130 11 -23 7 -30 -38 -79 -62
-69 -111 -152 -205 -348 -41 -86 -80 -159 -85 -162 -15 -9 -23 28 -14 61 11
37 87 215 122 284 33 66 34 68 15 68 -8 0 -16 7 -20 15 -4 11 1 15 17 15 30 0
36 6 95 77 49 59 51 64 46 106 -5 34 -1 55 16 93 13 27 31 86 41 131 9 45 29
108 43 139 18 39 26 74 26 113 0 86 26 187 65 259 32 57 37 77 42 154 6 89 6
89 -25 121 -17 18 -57 75 -90 127 -33 52 -63 95 -68 95 -4 0 -17 -31 -29 -70
-57 -184 -167 -358 -330 -521 -117 -118 -229 -199 -320 -233 -57 -22 -191 -41
-284 -41 -49 0 -56 -3 -85 -36 -25 -29 -40 -37 -76 -41 -48 -5 -49 -5 -340
101 -237 86 -270 118 -270 259 0 136 -9 155 -121 258 -125 115 -129 127 -129
336 0 148 -1 155 -26 193 -14 21 -30 57 -35 80 -18 78 27 174 96 207 31 15 35
23 55 102 22 89 38 121 101 206 43 57 71 117 88 190 10 44 9 57 -10 110 -27
76 -36 222 -20 307 26 131 135 291 271 399 59 47 90 78 95 97 3 15 18 56 32
92 23 59 25 74 20 158 -22 332 101 686 312 900 58 59 161 134 201 147 10 3 34
32 54 64 20 32 51 72 70 89 43 37 132 72 213 82 59 8 189 -1 225 -15 11 -4 82
14 175 46 138 47 166 60 239 114 45 34 105 77 133 94 28 18 49 37 46 41 -3 4
3 7 13 6 9 0 16 5 14 12 -1 8 2 11 7 8 5 -3 56 22 112 55 158 94 390 205 592
285 l67 26 0 40 c0 33 -7 48 -39 83 -45 49 -73 120 -108 270 -38 167 -22 249
65 327 l39 35 11 139 c7 77 12 190 12 251 0 187 1 189 147 370 212 263 295
332 463 388 147 49 359 67 527 45z m109 -124 c98 -21 160 -46 230 -92 68 -45
286 -260 357 -351 l48 -62 9 -228 c5 -125 9 -253 9 -283 l0 -55 -16 30 c-34
66 -96 110 -207 151 l-60 22 42 -2 c28 0 46 4 52 14 5 8 10 65 10 125 2 195
16 208 21 19 4 -154 6 -174 24 -194 18 -20 85 -60 101 -60 3 0 3 100 -1 223
-6 169 -11 230 -23 257 -20 44 -254 278 -304 305 -48 25 -63 13 -47 -35 11
-29 10 -35 -7 -47 -17 -12 -17 -19 -6 -83 12 -71 16 -140 8 -140 -3 0 -27 21
-55 48 -27 26 -71 62 -98 81 -38 26 -42 27 -18 6 17 -15 63 -59 104 -98 l74
-71 5 -65 c4 -56 3 -64 -11 -58 -11 4 -14 2 -11 -7 3 -8 1 -17 -5 -21 -6 -3
-11 -36 -11 -72 l0 -66 -47 7 c-26 3 -69 19 -97 36 -28 16 -93 53 -143 82
l-93 53 0 55 c0 30 -5 71 -10 91 -9 32 -15 37 -58 47 -41 9 -33 10 62 6 60 -3
130 -8 155 -11 25 -3 44 -3 41 0 -12 13 -202 37 -340 42 -80 3 -158 8 -175 11
-34 5 -86 43 -69 50 6 3 20 11 30 18 16 12 13 13 -26 6 -24 -4 -54 -4 -68 1
-19 7 -30 4 -52 -14 -27 -24 -128 -68 -182 -81 -26 -6 -28 -4 -28 23 0 51 18
81 93 153 71 69 71 69 8 14 -35 -30 -67 -53 -71 -51 -5 3 -16 -15 -26 -39 -10
-24 -23 -42 -28 -39 -5 4 -7 -3 -4 -15 4 -12 2 -20 -2 -17 -5 3 -11 -1 -14 -7
-8 -17 4 31 14 58 5 11 15 27 22 35 8 8 36 46 61 85 26 40 63 84 81 98 l34 25
6 -25 c4 -14 4 -30 0 -36 -4 -6 -1 -9 7 -6 9 3 14 21 14 52 0 31 5 50 15 56
27 17 38 11 48 -27 l11 -38 -2 44 -2 45 54 13 c30 8 79 18 110 23 84 13 374 5
457 -14z m-832 -178 c-18 -31 -84 -109 -156 -185 -43 -46 -78 -88 -78 -94 0
-16 47 -98 72 -125 16 -18 17 -23 4 -33 -11 -10 -12 -19 -4 -42 6 -17 8 -49 5
-71 -3 -22 -2 -50 3 -62 5 -15 2 -28 -10 -44 -10 -12 -20 -22 -22 -22 -1 0 -3
37 -3 83 0 71 -4 92 -33 157 -38 87 -49 107 -57 99 -8 -9 -19 -393 -12 -412 5
-14 14 -13 69 13 94 43 135 48 50 5 -40 -20 -90 -53 -112 -74 -33 -31 -40 -45
-40 -76 0 -32 2 -36 15 -25 8 7 15 8 15 3 0 -11 -21 -33 -32 -33 -11 0 -9 131
6 382 10 170 17 223 30 243 24 36 129 157 215 248 71 74 91 91 75 65z m722
-517 c21 -16 57 -46 79 -65 l40 -36 -30 5 c-16 2 -56 7 -87 10 l-58 6 0 55 c0
30 4 54 8 54 5 0 27 -13 48 -29z m65 -28 c13 -16 12 -17 -3 -4 -10 7 -18 15
-18 17 0 8 8 3 21 -13z m69 -44 c0 -5 3 -8 8 -7 4 1 21 -5 37 -15 17 -9 24
-16 16 -17 -17 0 -91 41 -91 52 0 4 7 5 15 2 8 -4 15 -10 15 -15z m-643 -164
c12 -9 26 -14 30 -13 13 5 173 -134 167 -144 -3 -5 -21 0 -40 11 -48 29 -42
18 11 -19 36 -25 47 -40 60 -82 8 -28 15 -65 15 -81 0 -30 0 -30 -22 -11 -12
10 -18 13 -14 7 4 -7 5 -13 3 -13 -3 0 -17 20 -31 45 -26 43 -44 61 -33 31 12
-30 -28 -28 -55 4 -16 16 -28 26 -28 20 0 -19 -39 14 -51 43 -8 19 -15 24 -19
16 -6 -8 -11 -6 -19 9 -11 20 -105 84 -119 80 -13 -4 -52 23 -52 36 0 17 116
76 150 76 14 0 35 -7 47 -15z m823 9 c18 -4 51 -25 74 -46 l41 -40 -25 -13
c-14 -8 -39 -14 -55 -15 -22 0 -44 -13 -78 -43 -26 -24 -47 -40 -47 -35 0 15
-33 -9 -99 -72 -48 -46 -66 -58 -72 -48 -7 11 -11 10 -19 -2 -9 -13 -10 -13
-11 0 0 10 -2 11 -6 3 -2 -7 -16 -13 -30 -13 -20 0 -24 4 -20 20 3 11 1 18 -4
14 -14 -9 -10 13 9 48 10 18 17 43 16 56 -2 31 64 97 151 149 71 44 105 51
175 37z m245 -166 c17 -56 15 -62 -9 -29 -14 19 -23 38 -20 42 9 16 21 10 29
-13z m179 -14 c3 -8 2 -12 -4 -9 -6 3 -10 10 -10 16 0 14 7 11 14 -7z m-866
-24 c16 -26 5 -73 -15 -66 -8 3 -11 1 -8 -4 3 -6 -1 -10 -10 -10 -13 0 -16 10
-14 50 3 55 23 68 47 30z m-928 -45 c6 -8 14 -34 17 -57 l5 -43 -19 35 c-23
44 -54 50 -88 16 -22 -22 -25 -34 -25 -93 1 -130 41 -259 95 -301 24 -19 35
-52 17 -52 -18 0 -56 46 -77 94 -59 133 -81 286 -50 346 30 59 97 89 125 55z
m1914 -36 c47 -55 54 -106 30 -201 -23 -90 -91 -227 -121 -246 -21 -13 -23
-13 -23 5 0 11 10 24 23 30 78 36 141 317 86 387 -27 34 -62 34 -89 -1 l-22
-28 8 30 c19 79 54 87 108 24z m-279 3 c-5 -4 -11 -14 -13 -22 -5 -22 -36 -52
-74 -73 -23 -13 -27 -13 -14 -3 11 9 15 16 9 16 -6 0 -14 7 -17 16 -3 8 -2 13
2 10 4 -2 28 11 52 30 25 18 50 34 55 34 7 0 7 -3 0 -8z m-700 -22 c3 -6 -4
-9 -19 -8 -13 1 -22 6 -20 10 7 11 32 10 39 -2z m-450 -50 c13 11 14 10 9 -5
-6 -15 -4 -16 14 -6 31 16 35 14 29 -18 -6 -29 -6 -30 24 -19 34 12 59 5 59
-17 0 -12 -13 -15 -59 -15 -67 0 -124 30 -129 69 -5 32 20 47 31 19 6 -17 10
-18 22 -8z m418 23 c-7 -2 -19 -2 -25 0 -7 3 -2 5 12 5 14 0 19 -2 13 -5z
m487 -31 c0 -34 -24 -59 -69 -72 -29 -8 -32 -6 -47 22 -13 25 -14 32 -3 39 10
6 18 0 27 -16 7 -14 15 -25 18 -25 3 0 2 5 -1 10 -3 6 -1 10 4 10 6 0 11 4 11
10 0 5 -7 7 -15 4 -18 -7 -20 7 -4 23 9 9 19 9 39 -2 23 -12 27 -12 27 0 0 8
-5 11 -10 8 -6 -3 -7 -1 -3 5 13 21 26 13 26 -16z m-1149 -41 c28 -9 39 -17
35 -27 -3 -7 -2 -13 2 -12 11 4 52 -35 52 -48 0 -7 -7 -15 -16 -18 -24 -9 -10
-19 15 -11 12 3 19 11 15 16 -3 6 3 5 14 -2 12 -7 18 -17 16 -21 -3 -5 -10 -5
-16 -2 -7 4 -8 2 -4 -4 4 -7 1 -12 -6 -12 -8 0 -23 -7 -34 -16 -10 -8 -13 -12
-6 -9 19 10 123 34 147 35 14 0 9 -7 -20 -24 l-40 -25 50 3 c44 3 47 2 30 -10
-18 -14 -18 -14 3 -14 25 0 28 -10 10 -28 -9 -9 -9 -12 -1 -12 7 0 15 5 18 10
3 6 22 10 41 10 19 0 46 7 59 16 13 9 30 12 36 8 8 -4 9 -3 5 5 -10 16 23 26
37 11 10 -10 8 -12 -6 -7 -10 4 -16 3 -13 -2 3 -5 -11 -20 -32 -34 -20 -15
-43 -37 -51 -49 -9 -16 -1 -11 25 13 22 20 54 41 72 47 30 10 41 5 25 -12 -5
-4 -8 -13 -8 -19 0 -7 -36 -36 -80 -65 -44 -29 -97 -66 -118 -83 -20 -16 -42
-27 -47 -24 -6 3 -10 -1 -10 -9 0 -9 -4 -16 -10 -16 -16 0 -12 7 21 45 18 20
30 37 28 39 -2 3 -20 -3 -39 -11 -33 -15 -45 -17 -86 -14 -43 3 -134 144 -134
209 0 17 -5 32 -10 32 -6 0 -3 11 6 25 10 15 12 25 5 25 -18 0 -91 -71 -84
-83 3 -5 2 -7 -4 -4 -11 7 3 130 18 159 5 10 17 18 26 18 14 0 15 2 1 18 -28
32 -32 47 -5 21 14 -14 45 -31 68 -38z m4 39 c16 -17 16 -20 3 -15 -9 4 -19
13 -22 21 -7 19 -2 18 19 -6z m688 0 c4 -16 0 -20 -23 -20 -35 0 -48 27 -17
33 12 2 25 5 28 6 4 0 9 -8 12 -19z m962 -50 c9 -51 -10 -138 -36 -170 -11
-14 -17 -19 -13 -11 11 20 12 71 2 65 -10 -7 -10 -8 7 50 8 27 15 62 15 78 0
42 17 34 25 -12z m-1947 -57 c1 -48 8 -93 14 -100 7 -9 7 -13 0 -13 -27 0 -67
172 -45 193 20 21 28 1 31 -80z m1667 78 c-3 -5 -1 -12 5 -16 6 -4 7 -11 4
-17 -5 -7 0 -9 12 -6 16 4 20 0 22 -20 2 -24 1 -24 -23 -8 -34 23 -43 20 -12
-4 14 -11 30 -20 36 -20 14 0 14 -27 1 -35 -6 -4 -8 -16 -4 -28 5 -17 0 -15
-37 14 l-44 34 21 -35 c22 -39 22 -69 -1 -50 -10 9 -16 7 -24 -8 -6 -11 -33
-34 -60 -51 -27 -18 -62 -49 -77 -69 -39 -53 -65 -72 -85 -62 -23 13 -103 40
-106 36 -2 -2 15 -23 37 -48 65 -75 132 -183 100 -163 -14 8 -1 -26 18 -47 9
-11 11 -18 4 -18 -15 0 -89 98 -142 188 -23 39 -67 99 -96 132 -30 34 -54 65
-54 70 0 4 -3 15 -6 23 -9 25 38 12 102 -28 45 -29 54 -33 39 -15 -11 13 -15
20 -8 16 16 -9 64 4 57 15 -3 5 11 6 33 3 l38 -6 -25 27 -25 28 90 -6 c82 -5
87 -4 60 8 -16 8 -25 14 -18 15 6 0 10 8 8 19 -4 23 76 103 125 124 44 19 42
19 35 8z m-1214 -18 c13 -16 12 -17 -3 -4 -10 7 -18 15 -18 17 0 8 8 3 21 -13z
m1049 12 c0 -2 -9 -9 -20 -15 -16 -9 -18 -8 -14 5 5 13 34 22 34 10z m59 2
c-2 -1 -13 -9 -24 -17 -19 -14 -19 -14 -6 3 7 9 18 17 24 17 6 0 8 -1 6 -3z
m-241 -29 c3 -15 -4 -18 -37 -18 -45 0 -60 13 -34 29 26 16 67 9 71 -11z
m2872 -62 c0 -2 -8 -10 -17 -17 -16 -13 -17 -12 -4 4 13 16 21 21 21 13z
m-3179 -51 c4 -17 13 -75 19 -130 7 -55 14 -113 16 -129 7 -42 -4 -64 -39 -81
-32 -15 -90 -18 -81 -4 2 4 -3 9 -10 12 -12 5 -14 33 -10 169 7 188 14 210 66
199 25 -5 34 -13 39 -36z m2570 2 c-10 -9 -11 -8 -5 6 3 10 9 15 12 12 3 -3 0
-11 -7 -18z m569 19 c0 -2 -8 -10 -17 -17 -16 -13 -17 -12 -4 4 13 16 21 21
21 13z m-3915 -56 c-3 -5 -11 -10 -16 -10 -6 0 -7 5 -4 10 3 6 11 10 16 10 6
0 7 -4 4 -10z m1442 -35 c0 -8 -4 -12 -9 -9 -5 3 -6 10 -3 15 9 13 12 11 12
-6z m-1517 -96 c0 -18 -10 -8 -25 24 l-16 32 21 -24 c11 -13 20 -27 20 -32z
m-43 -11 c-3 -7 -5 -2 -5 12 0 14 2 19 5 13 2 -7 2 -19 0 -25z m517 -70 c-64
-81 -142 -169 -160 -180 -7 -5 -14 -1 -18 8 -4 10 -2 13 6 8 8 -5 9 -2 5 10
-4 9 -3 15 2 12 5 -3 11 7 14 22 7 32 94 124 156 164 25 15 46 28 48 28 2 0
-22 -33 -53 -72z m-510 -228 c7 -12 7 -13 -5 -2 -10 9 -14 44 -15 125 l-2 112
7 -110 c4 -60 11 -117 15 -125z m1291 176 c6 -4 1 -4 -10 2 -11 6 -29 21 -40
34 -19 22 -19 22 10 -2 17 -14 35 -29 40 -34z m-713 -43 c5 -82 3 -101 -9 -91
-26 21 -28 118 -2 118 5 0 10 -12 11 -27z m-2 -174 c-14 -25 -19 -24 -14 4 4
19 3 18 -6 -3 -7 -17 -30 -36 -64 -52 l-53 -26 9 54 c4 29 22 83 39 119 l31
65 34 -71 c27 -55 32 -75 24 -90z m600 82 c17 -34 29 -69 26 -76 -3 -8 2 -19
10 -26 11 -9 11 -15 3 -25 -16 -19 -47 0 -64 39 -13 29 -14 29 -15 8 0 -18 -4
-22 -17 -16 -10 3 -31 9 -46 12 -16 3 -25 9 -20 12 5 3 17 26 28 51 18 41 55
94 61 87 2 -1 17 -31 34 -66z m510 26 c0 -24 -6 -52 -14 -63 -14 -18 -14 -18
-10 6 2 14 7 42 10 63 8 49 14 47 14 -6z m-1784 -76 c-22 -23 -30 -47 -45
-129 -12 -70 -25 -112 -44 -140 -28 -43 -111 -118 -185 -168 l-46 -32 -48 52
c-48 52 -67 52 -26 0 13 -15 16 -24 9 -19 -11 6 -13 4 -7 -10 6 -18 6 -18 -12
-2 -10 9 -21 14 -24 11 -3 -3 -9 0 -14 7 -4 8 -3 10 4 5 18 -11 14 9 -3 24
-13 11 -14 10 -9 -3 4 -12 -2 -20 -19 -26 -23 -9 -51 -43 -52 -63 0 -3 -4 -10
-9 -15 -5 -5 -6 -2 -1 6 5 9 4 12 -3 7 -7 -4 -17 -16 -23 -28 -8 -14 -8 -18 0
-14 7 4 9 1 5 -8 -7 -17 -32 -29 -45 -20 -5 3 -8 0 -7 -8 3 -14 -9 -14 -168
-4 -40 2 -87 7 -105 11 l-34 7 38 -27 c20 -14 37 -27 37 -29 0 -1 -37 -1 -82
1 -53 3 -99 -1 -128 -10 l-45 -13 91 -7 c93 -8 153 -20 163 -35 3 -5 33 -26
66 -48 33 -21 83 -63 110 -92 28 -30 79 -68 116 -88 39 -20 93 -62 130 -99 65
-66 88 -81 69 -46 -14 27 -13 31 7 24 12 -5 15 -2 10 10 -3 9 -3 17 1 18 62 6
136 3 172 -7 106 -32 107 -8 3 44 -103 52 -196 81 -301 97 -86 12 -86 13 -32
15 130 5 192 -7 306 -60 102 -47 207 -117 198 -132 -4 -7 -3 -8 4 -4 6 4 22 0
34 -8 13 -8 58 -28 101 -46 61 -25 98 -50 172 -116 52 -46 98 -84 104 -84 5 0
13 -5 17 -12 4 -7 3 -8 -4 -4 -19 12 -14 1 10 -20 12 -10 18 -13 14 -6 -5 8
11 1 35 -13 50 -31 129 -104 129 -120 0 -5 26 -37 58 -71 31 -33 53 -53 47
-44 -5 9 5 0 22 -19 18 -20 33 -44 33 -54 0 -12 4 -16 13 -11 6 4 9 3 4 -1 -4
-5 0 -19 8 -32 14 -21 14 -23 -1 -23 -17 0 -91 70 -198 190 l-59 65 41 -61
c23 -34 38 -65 34 -69 -4 -3 -2 -5 3 -3 6 1 63 -49 128 -113 l117 -116 -7 -49
c-7 -56 -42 -141 -67 -167 -16 -16 -16 -23 10 -134 21 -94 27 -145 28 -250 1
-72 -2 -126 -6 -120 -5 7 -8 3 -8 -11 0 -13 -5 -33 -12 -45 -11 -21 -10 -21 8
-7 10 8 -10 -18 -45 -57 -35 -40 -79 -84 -98 -99 -45 -34 -91 -98 -103 -143
-5 -21 -27 -54 -50 -76 l-41 -40 20 52 c11 28 24 84 28 124 l8 74 67 40 c211
127 234 221 143 600 -103 432 -245 701 -473 898 -197 171 -361 185 -730 61
-323 -108 -495 -184 -575 -254 -53 -47 -71 -76 -81 -133 -4 -21 -22 -63 -40
-95 -47 -80 -59 -130 -62 -260 -1 -87 -5 -117 -18 -131 -9 -9 -21 -32 -27 -49
-11 -31 -32 -42 -44 -22 -3 5 3 27 15 49 16 32 20 59 20 139 0 126 12 192 49
264 33 65 30 65 -54 8 -104 -71 -323 -160 -393 -160 -18 0 -42 5 -53 10 -19
11 -19 11 2 51 11 23 18 48 14 56 -3 9 3 25 12 36 19 20 148 98 285 172 45 25
80 45 76 45 -3 0 -43 -16 -88 -34 -114 -48 -264 -136 -335 -195 -53 -45 -61
-48 -72 -34 -16 21 -9 48 35 145 32 71 34 81 24 120 -7 25 -7 48 -2 58 5 9 6
29 2 44 l-7 27 -19 -40 c-10 -23 -22 -38 -28 -35 -11 7 -6 82 7 119 6 17 5 17
-5 5 -9 -12 -10 -10 -4 10 11 41 44 100 55 100 6 0 8 4 5 9 -6 10 55 94 94
129 50 45 162 91 260 107 176 28 449 12 588 -34 29 -10 49 -14 43 -8 -23 23
-12 40 19 33 21 -4 29 -2 24 5 -3 6 17 -1 46 -16 l52 -26 -19 32 c-48 82 -188
142 -376 159 -63 6 -103 17 -172 47 -49 22 -99 43 -110 48 -16 6 8 21 120 76
170 83 243 104 334 94 36 -4 84 -13 106 -21 68 -23 50 -8 -30 26 -42 17 -96
35 -118 39 l-42 7 83 62 c166 123 382 243 627 348 122 52 238 93 244 88 3 -3
-8 -17 -23 -33z m2124 -71 c226 -100 389 -195 639 -369 l44 -31 -37 0 c-20 0
-62 -7 -94 -15 -31 -8 -79 -18 -107 -23 -38 -7 -23 -8 60 -4 172 8 272 -17
500 -123 l80 -38 -105 -49 c-110 -51 -150 -63 -240 -72 -41 -4 -51 -3 -40 5
12 9 11 9 -5 4 -11 -4 -53 -16 -94 -27 -41 -11 -88 -26 -103 -34 -41 -21 -108
-84 -108 -100 0 -19 14 -18 58 5 40 20 62 18 62 -5 0 -8 5 -14 11 -14 6 0 9
-7 5 -15 -7 -19 -7 -19 51 4 165 65 476 85 643 42 47 -12 95 -29 107 -37 33
-21 39 -17 10 7 -15 11 -66 39 -114 62 -84 40 -92 42 -183 42 -52 0 -120 -4
-150 -9 -52 -8 -54 -8 -40 9 8 10 28 26 45 36 l30 19 -55 -6 c-107 -10 -205
-26 -238 -40 -18 -7 -30 -9 -27 -4 10 15 98 39 190 50 50 6 125 23 167 36 42
14 102 28 133 31 53 6 58 4 92 -28 l36 -34 -26 36 -27 36 42 19 c34 15 66 19
158 19 146 0 194 -20 245 -99 23 -37 52 -63 97 -91 163 -101 302 -288 371
-500 47 -144 60 -235 61 -440 2 -170 4 -195 23 -235 26 -56 37 -112 29 -145
-11 -42 -22 -22 -40 72 -25 123 -24 122 -47 75 -21 -42 -45 -69 -55 -60 -2 3
4 21 15 39 41 71 55 146 55 289 -1 241 -56 411 -198 615 -39 57 -81 102 -112
124 l-49 35 42 -46 c75 -83 85 -113 90 -277 4 -119 2 -150 -10 -166 -15 -20
-15 -20 -38 0 -18 15 -20 15 -10 3 16 -21 7 -83 -12 -91 -8 -3 -19 4 -26 15
-10 16 -10 19 1 13 7 -4 2 3 -12 15 -14 12 -19 19 -12 15 8 -4 5 8 -7 31 -12
21 -24 53 -27 71 -3 18 -10 36 -15 39 -5 3 -9 11 -9 17 1 7 10 1 20 -12 45
-53 0 29 -65 121 -37 52 -87 99 -70 66 3 -7 -5 1 -19 17 -14 17 -26 35 -26 40
0 6 5 3 11 -5 7 -10 9 -11 7 -2 -2 8 -8 13 -13 13 -6 0 -23 13 -40 28 -16 16
-41 34 -54 41 l-24 12 26 -47 c15 -26 24 -52 20 -58 -3 -5 -1 -7 4 -4 6 4 14
0 17 -9 3 -8 2 -13 -3 -10 -4 3 -7 -6 -5 -19 l2 -25 -40 32 -41 32 38 -50 c21
-27 51 -76 66 -109 28 -61 51 -173 32 -162 -5 3 -8 -5 -6 -21 2 -16 -4 -37
-15 -51 l-19 -23 -23 37 c-17 27 -25 33 -31 23 -5 -8 -3 -17 6 -24 8 -6 12
-14 8 -18 -3 -3 -15 2 -26 11 -19 18 -20 17 -7 -7 7 -14 20 -33 29 -43 15 -19
24 -107 10 -107 -4 0 -39 24 -78 53 -83 62 -311 189 -311 173 0 -2 26 -19 58
-36 59 -34 230 -146 271 -178 l23 -19 -51 4 c-33 3 -51 1 -51 -7 0 -12 33 -47
67 -71 12 -8 24 -27 27 -41 4 -26 4 -27 -42 -23 -26 3 -72 6 -103 9 -31 2 -74
13 -97 25 l-40 20 5 -132 c4 -103 9 -140 24 -170 19 -37 25 -88 12 -100 -8 -9
-43 22 -43 38 0 7 -8 23 -19 36 -15 20 -19 48 -23 159 -6 144 -25 222 -74 308
-14 24 -32 65 -40 93 -26 87 -113 156 -357 280 -243 124 -492 220 -619 240
-139 22 -255 -23 -414 -161 -264 -228 -484 -600 -578 -979 -35 -141 -41 -209
-22 -273 18 -63 64 -121 115 -148 32 -16 37 -23 34 -47 -6 -43 35 -113 87
-148 44 -30 45 -31 42 -81 -4 -76 28 -154 85 -204 34 -30 41 -40 27 -40 -36 0
-93 50 -130 113 -20 34 -37 67 -37 72 0 6 -9 12 -20 13 -27 2 -156 138 -214
226 -25 38 -61 102 -80 142 -31 65 -35 82 -36 161 0 65 4 96 16 118 9 17 17
35 17 41 0 6 15 24 33 40 27 24 37 44 56 120 l22 92 -32 45 c-37 52 -47 118
-30 184 9 32 23 50 61 78 28 20 48 40 45 45 -3 4 11 22 30 39 19 17 35 33 35
37 0 4 17 22 38 41 20 19 28 30 17 24 -11 -5 -38 -28 -60 -51 -22 -23 -61 -60
-87 -81 -42 -36 -47 -38 -43 -17 3 12 6 37 7 55 1 18 6 33 12 33 5 0 7 3 3 6
-9 9 67 106 111 141 67 54 149 92 215 99 60 7 61 6 47 -12 -25 -31 26 11 106
88 38 37 113 103 168 146 204 164 353 232 511 232 69 -1 86 -3 72 -11 -11 -6
-44 -11 -75 -12 -33 0 -44 -2 -27 -5 25 -4 15 -9 -55 -28 -47 -13 -105 -28
-129 -34 -24 -6 -55 -17 -70 -25 -24 -14 -17 -15 94 -14 70 1 126 6 134 13 12
9 12 8 2 -12 -10 -19 -9 -23 4 -29 11 -4 31 8 58 35 23 23 69 53 101 68 38 17
90 55 139 101 44 41 104 91 135 111 54 36 57 37 176 42 112 5 119 7 91 19 -16
7 -72 16 -124 19 l-95 5 30 23 29 24 -26 0 c-14 0 -47 -6 -73 -14 -44 -13
-186 -13 -207 0 -4 2 -15 1 -26 -3 -16 -6 -15 -8 7 -14 21 -6 19 -7 -13 -8
-41 -1 -183 50 -218 78 -17 14 -19 20 -9 26 9 6 11 4 5 -5 -5 -9 -4 -11 4 -6
6 4 9 12 6 17 -4 5 2 21 13 37 33 48 34 58 3 23 -45 -51 -69 -49 -31 2 46 62
36 68 -16 9 -25 -28 -51 -52 -57 -52 -7 0 -45 27 -85 61 -76 63 -127 132 -138
187 -3 18 -10 34 -14 37 -5 3 -11 36 -15 73 -9 92 -18 108 -25 42 l-5 -55 -18
57 c-9 31 -17 68 -17 82 l0 25 83 -29 c45 -16 134 -52 197 -80z m-1878 61 c7
10 8 8 5 -11 -16 -74 -18 -118 -8 -124 7 -5 11 2 11 15 0 34 22 8 24 -28 1
-15 5 -35 10 -43 5 -8 -13 10 -40 40 -27 30 -71 77 -99 104 -48 47 -30 39 28
-13 l27 -25 1 40 c1 21 1 43 0 48 -1 5 5 3 14 -4 14 -12 18 -11 27 1z m1400
-59 c5 -52 -10 -92 -34 -92 -6 0 -17 -8 -24 -17 -12 -16 -14 -11 -12 37 2 87
11 102 31 51 10 -23 14 -48 11 -54 -5 -9 -4 -9 6 0 10 9 10 21 2 55 -11 44 -6
96 8 81 5 -4 10 -32 12 -61z m102 60 c3 -5 -14 -26 -37 -48 l-42 -39 38 41
c20 22 34 43 31 47 -4 4 -5 7 -1 7 3 0 8 -4 11 -8z m-779 -200 c-1 -1 -16 1
-33 4 l-30 6 16 33 17 34 16 -37 c9 -20 15 -38 14 -40z m922 56 c-3 -8 -6 -5
-6 6 -1 11 2 17 5 13 3 -3 4 -12 1 -19z m-1225 -40 c-9 -9 -12 -9 -12 2 0 9
-5 8 -16 -6 -16 -20 -8 2 9 24 7 9 13 10 21 2 7 -7 6 -14 -2 -22z m553 6 c9
-15 12 -23 6 -20 -11 7 -35 46 -28 46 3 0 12 -12 22 -26z m-25 -25 c0 -5 -9
-4 -19 3 -11 7 -17 16 -14 20 5 10 33 -10 33 -23z m-240 -49 c22 -6 23 -8 7
-15 -23 -9 -96 0 -110 14 -13 13 62 14 103 1z m3 -127 c-7 -2 -21 -2 -30 0
-10 3 -4 5 12 5 17 0 24 -2 18 -5z m-323 -135 c22 -13 40 -29 40 -35 0 -7 0
-16 0 -20 0 -7 -10 -7 -55 -4 -8 1 -21 14 -30 31 -29 56 -17 63 45 28z m416 4
c5 -5 25 -15 44 -22 52 -20 61 -29 50 -50 -18 -34 -64 -44 -153 -32 -45 7
-103 14 -129 17 -25 3 -51 11 -56 18 -13 16 5 42 36 51 12 4 20 12 17 17 -8
11 177 12 191 1z m-2551 -173 c22 -5 53 -15 68 -21 l28 -11 -58 -59 c-32 -32
-80 -73 -106 -90 -26 -17 -46 -33 -43 -35 12 -12 89 43 148 107 l67 73 73 -6
c41 -3 110 -18 158 -35 50 -18 114 -32 155 -34 47 -3 83 -12 110 -27 22 -12
31 -19 20 -16 -57 18 -166 35 -243 39 -59 3 -74 2 -47 -3 l40 -8 -50 -2 c-82
-2 -175 -21 -245 -48 -75 -30 -280 -164 -358 -235 -30 -26 -58 -48 -62 -48
-14 0 -66 -80 -79 -121 -6 -20 -13 -56 -15 -81 -1 -25 -14 -63 -27 -85 -38
-64 -122 -164 -130 -156 -11 12 -39 114 -39 144 0 40 47 215 71 261 11 22 22
49 24 60 2 10 18 37 35 58 18 22 27 40 22 40 -6 0 -34 -31 -63 -70 -28 -38
-54 -70 -56 -70 -7 0 37 60 86 120 l46 54 -35 -19 c-54 -31 -163 -143 -214
-222 -107 -165 -156 -357 -156 -609 0 -108 17 -184 50 -227 22 -28 25 -37 11
-37 -5 0 -22 20 -38 45 -15 25 -31 45 -34 45 -8 0 -29 -113 -29 -152 0 -31 -9
-41 -27 -27 -21 18 -15 75 16 152 27 69 29 81 34 277 4 176 8 218 30 300 30
116 89 254 142 335 59 91 178 205 272 260 62 37 84 56 88 76 9 38 56 79 117
100 60 21 180 25 243 8z m3007 -78 c-2 -14 -29 -78 -59 -141 -54 -116 -55
-132 0 -43 16 26 26 39 22 28 -4 -11 -10 -31 -15 -45 -23 -78 -109 -200 -139
-200 -19 0 -6 92 21 148 66 134 141 262 151 255 6 -4 8 -1 5 9 -4 8 -1 15 6
15 8 0 11 -10 8 -26z m-1051 -106 c39 -65 72 -123 73 -129 1 -6 28 -60 60
-121 53 -99 67 -138 52 -152 -2 -3 -29 1 -59 7 -54 12 -56 14 -86 74 -17 34
-31 67 -31 73 0 6 -4 13 -8 15 -14 6 -104 192 -122 253 -10 33 -21 69 -24 80
-4 11 21 -34 55 -100 62 -123 69 -123 19 -2 -16 38 -27 75 -24 83 12 41 15 47
19 43 2 -3 36 -58 76 -124z m1734 -230 c130 -34 311 -108 540 -222 179 -89
273 -150 318 -206 54 -67 54 -76 0 -22 -27 28 -65 61 -84 74 -19 13 -1 -8 39
-48 76 -76 93 -115 19 -45 -68 66 -196 156 -286 203 -115 59 -585 216 -589
196 -3 -11 -18 -15 -57 -15 -31 0 -73 -8 -99 -20 -59 -25 -60 -10 -4 47 43 44
38 54 -16 33 -42 -16 -30 -1 17 20 51 24 123 25 202 5z m-2163 -66 c71 -15
173 -69 233 -125 l50 -45 -44 31 c-25 17 -77 41 -115 53 -62 19 -93 22 -246
22 l-175 0 -195 -66 c-107 -37 -240 -79 -295 -94 -149 -41 -211 -79 -277 -169
-33 -46 -36 -41 -8 13 37 73 137 132 370 219 430 160 563 190 702 161z m474
-77 c-10 -2 -22 0 -28 6 -6 6 0 7 19 4 21 -5 23 -7 9 -10z m-441 -34 c22 -14
60 -44 85 -67 51 -48 58 -47 -90 -16 -57 12 -100 15 -187 9 l-113 -7 18 -29
c21 -37 13 -50 -64 -105 -82 -59 -152 -93 -192 -93 -37 0 -75 34 -119 109 -25
41 -26 44 -9 57 17 12 173 75 233 94 15 5 73 25 128 45 91 33 108 36 185 32
70 -3 92 -8 125 -29z m2273 -93 c48 -20 141 -52 206 -72 66 -19 136 -43 157
-54 36 -18 37 -20 29 -50 -5 -18 -12 -34 -14 -37 -3 -2 -44 15 -91 38 -81 40
-93 43 -208 52 -222 16 -318 39 -325 78 -1 8 12 32 29 54 31 37 34 38 81 33
27 -4 88 -22 136 -42z m-2044 -179 c66 -135 116 -306 116 -399 0 -35 -38 -118
-57 -124 -13 -5 -63 115 -92 217 -11 41 -32 140 -46 219 -15 79 -31 155 -36
168 -12 32 -12 31 14 35 33 6 52 -16 101 -116z m2484 -16 c1 -19 -2 -42 -8
-50 -8 -13 -11 -13 -25 1 -22 22 -11 92 14 87 10 -2 17 -15 19 -38z m73 17 c9
-7 19 -21 23 -33 11 -35 -22 -191 -54 -254 -30 -59 -230 -334 -237 -326 -3 2
32 75 77 163 79 155 94 198 118 348 18 108 35 131 73 102z m1063 -31 c33 -56
49 -203 23 -203 -20 0 -41 55 -28 71 6 7 6 17 1 26 -6 8 -10 11 -11 5 0 -5 -5
1 -9 15 -8 26 -13 130 -6 130 2 0 16 -20 30 -44z m-5944 -10 c0 -2 -8 -10 -17
-17 -16 -13 -17 -12 -4 4 13 16 21 21 21 13z m-25 -121 l-13 -80 -1 73 c-1 53
-4 71 -13 66 -7 -4 -8 -3 -4 5 4 6 11 9 16 6 5 -3 12 0 15 6 12 19 12 5 0 -76z
m2481 -389 c-27 -61 -42 -70 -52 -31 -4 16 1 34 15 53 11 16 26 42 32 58 l11
29 10 -26 c7 -21 3 -39 -16 -83z m-2176 23 c69 -16 200 -81 251 -126 l47 -40
-67 -38 c-36 -21 -88 -55 -116 -75 -41 -30 -61 -38 -113 -42 -70 -7 -161 -46
-297 -128 -128 -77 -117 -82 28 -12 73 36 138 65 145 65 6 0 12 4 12 8 0 4 14
12 30 18 24 8 29 7 23 -2 -4 -7 -8 -16 -8 -22 0 -5 -9 -9 -19 -7 -10 2 -15 -1
-12 -6 3 -5 -10 -22 -28 -36 -41 -31 -58 -35 -25 -5 l24 20 -27 -17 c-15 -9
-26 -20 -23 -24 8 -12 -23 -33 -36 -24 -7 4 -9 3 -6 -3 4 -6 -10 -24 -31 -39
-64 -49 -133 -117 -150 -149 -8 -16 -23 -59 -33 -95 -10 -36 -18 -57 -18 -47
-1 9 -4 17 -8 17 -9 0 -72 -48 -110 -83 -18 -17 -35 -28 -39 -25 -9 9 15 87
52 167 19 41 34 88 34 105 0 26 18 49 98 132 53 55 126 127 162 158 l65 58
-76 -50 c-42 -28 -114 -87 -161 -131 l-84 -79 -21 36 c-34 59 -104 134 -141
149 l-33 14 50 57 c37 42 46 58 35 60 -9 2 -25 -5 -37 -15 -20 -18 -20 -17 1
14 22 31 87 88 148 131 38 26 114 53 127 45 6 -3 7 -1 3 5 -4 7 -1 13 6 14 29
3 34 4 54 16 12 6 24 8 28 5 3 -3 6 -1 6 5 0 27 201 42 290 21z m5675 -22 c55
-15 210 -90 220 -107 3 -5 11 -10 16 -10 6 0 7 6 3 13 -5 8 -3 8 9 -2 9 -7 14
-17 12 -22 -3 -4 7 -16 22 -25 71 -44 90 -81 35 -68 -25 6 -24 3 19 -42 26
-27 50 -59 53 -71 7 -21 4 -21 -71 12 -43 18 -94 36 -113 39 -28 5 -23 1 22
-18 78 -33 158 -77 158 -87 0 -5 -15 -16 -32 -25 -46 -23 -138 -103 -138 -119
0 -7 -38 24 -84 70 -96 95 -173 138 -279 156 -86 14 -99 6 -15 -10 117 -23
192 -71 283 -180 22 -26 97 -116 167 -199 118 -141 161 -201 157 -219 -1 -5
-9 -13 -18 -20 -13 -9 -30 -4 -91 28 -41 21 -79 39 -85 40 -5 1 -20 5 -33 10
-17 7 -21 6 -16 -3 4 -7 -8 -3 -26 8 -26 15 -36 29 -42 58 -10 48 -5 55 24 30
l23 -19 -21 25 c-12 14 -37 50 -56 80 -33 53 -147 163 -273 264 -74 60 -53 56
114 -25 68 -33 126 -58 128 -55 8 7 -116 87 -183 117 -35 16 -77 29 -93 29
-46 0 -179 75 -246 139 -33 31 -75 67 -92 80 -18 12 -33 28 -33 36 0 16 54 57
64 48 3 -3 6 0 6 7 0 7 3 11 6 7 3 -3 24 1 46 9 49 17 61 18 52 2 -4 -7 -3 -8
5 -4 6 4 9 11 6 16 -3 5 21 11 52 15 32 3 65 8 73 10 30 8 216 -5 265 -18z
m-3452 -102 c2 -79 -10 -91 -40 -38 l-21 37 21 42 c12 23 25 39 30 35 4 -4 8
-38 10 -76z m-1792 -47 c-16 -23 -27 -49 -24 -58 4 -12 3 -12 -5 -2 -13 19
-50 -34 -72 -106 -16 -50 -19 -54 -24 -32 -20 76 11 148 87 202 29 20 55 37
59 38 4 0 -5 -19 -21 -42z m4706 -82 c21 -40 43 -116 43 -148 0 -48 -25 -32
-39 25 -7 28 -30 87 -52 130 -21 43 -39 81 -39 84 0 13 72 -62 87 -91z m-4939
-70 c-29 -35 -64 -84 -76 -108 l-23 -43 6 45 c10 69 25 92 85 132 30 21 56 38
58 38 1 0 -21 -29 -50 -64z m5033 17 c24 -27 29 -50 12 -50 -8 0 -20 12 -26
26 -6 14 -18 35 -26 45 -15 18 -15 18 4 8 11 -5 27 -18 36 -29z m1089 -95 c36
-76 44 -123 35 -206 -8 -72 -18 -68 -29 11 -11 71 -41 151 -77 203 -34 50 -29
65 18 56 19 -4 32 -19 53 -64z m-6310 59 c0 -2 -15 -14 -32 -27 -18 -13 -27
-17 -21 -8 7 8 9 19 5 23 -4 5 -2 6 3 2 6 -3 17 -2 25 4 16 9 20 11 20 6z
m-876 -19 c-4 -7 -20 -32 -36 -55 -16 -24 -38 -76 -49 -115 l-19 -73 3 70 c4
95 44 185 82 185 18 0 24 -4 19 -12z m6247 -71 c4 -16 3 -25 -2 -21 -5 3 -9 0
-9 -7 0 -21 -35 23 -48 60 -16 47 -16 47 20 19 18 -14 35 -37 39 -51z m-5317
11 c-8 -23 -18 -46 -23 -52 -5 -6 -12 -28 -16 -48 -4 -21 -11 -35 -16 -32 -5
3 -10 -10 -10 -28 -1 -18 -3 -25 -6 -15 -3 10 1 50 7 89 10 56 19 78 40 100
16 15 31 28 34 28 3 0 -1 -19 -10 -42z m-124 -93 c-4 -22 -12 -89 -15 -148 -6
-91 -11 -113 -31 -140 -13 -18 -34 -53 -47 -78 l-23 -45 2 125 c1 96 0 103 -3
28 -2 -54 -8 -95 -12 -92 -5 3 -8 -6 -7 -20 2 -13 -1 -22 -5 -19 -5 3 -9 -10
-9 -28 0 -18 -4 -40 -10 -48 -15 -24 -32 35 -38 131 -5 99 8 137 67 197 33 34
91 116 91 128 0 3 -6 2 -12 -2 -7 -4 -10 -4 -6 0 3 4 9 6 11 4 3 -1 15 10 27
25 12 15 24 27 26 25 1 -2 -1 -21 -6 -43z m5581 -22 c13 -16 12 -17 -3 -4 -10
7 -18 15 -18 17 0 8 8 3 21 -13z m40 -87 c31 -42 36 -86 23 -214 -8 -71 -20
-73 -29 -4 -14 110 -28 165 -55 218 -17 31 -30 65 -30 77 0 19 2 19 31 -9 17
-16 44 -47 60 -68z m104 -121 c10 -24 10 -48 -4 -129 -24 -149 -38 -135 -37
38 1 123 3 143 15 133 8 -7 20 -25 26 -42z m-3416 -2 c-1 -16 -4 -39 -8 -53
-6 -21 -8 -22 -14 -8 -6 16 -10 16 -43 -7 -41 -28 -76 -39 -96 -33 -7 3 12 17
42 33 68 34 90 53 90 77 0 10 7 18 15 18 10 0 15 -9 14 -27z m1001 -27 c0 -30
-5 -46 -15 -50 -17 -6 -19 11 -9 63 9 46 24 38 24 -13z m64 -61 c3 -8 12 -15
21 -15 8 0 15 -9 15 -20 0 -11 -6 -20 -14 -20 -23 0 -70 45 -62 58 10 17 33
15 40 -3z m-3808 -50 c-11 -8 -25 -15 -30 -15 -6 1 0 7 14 15 32 19 40 18 16
0z m25 -187 c-3 -104 -6 -126 -22 -141 -18 -17 -18 -14 -22 70 l-3 88 -2 -100
-2 -101 -42 -41 c-120 -114 -284 -193 -405 -193 -40 0 -53 -4 -53 -15 0 -16
-51 -41 -100 -49 -17 -2 -39 -10 -48 -18 -16 -12 -16 -11 -2 7 30 41 147 172
200 224 62 61 295 261 354 306 37 27 135 84 146 85 3 0 3 -55 1 -122z m6402
62 c134 -92 475 -398 606 -542 47 -51 69 -79 50 -62 -19 17 -54 49 -79 71 -25
22 -94 83 -155 134 l-110 93 147 -147 c96 -96 146 -154 145 -166 0 -11 -5 -17
-9 -15 -5 3 -5 10 -2 16 4 6 2 8 -4 4 -6 -3 -13 -2 -17 4 -3 5 -16 15 -28 22
-15 8 -11 -1 16 -30 44 -50 47 -61 8 -33 -16 12 -33 21 -39 21 -5 0 -15 7 -22
15 -7 9 -19 14 -26 11 -6 -2 -20 2 -31 10 -17 14 -16 14 7 4 23 -10 24 -10 7
4 -11 8 -25 12 -32 10 -18 -7 -97 34 -90 46 4 6 -1 7 -11 3 -10 -4 -15 -2 -11
3 3 6 -8 18 -26 28 l-32 18 25 -22 c14 -12 18 -18 10 -14 -8 5 -29 9 -47 9
-19 1 -56 17 -95 43 -111 74 -114 75 -53 16 33 -31 51 -51 41 -43 -18 13 -19
12 -13 -3 3 -10 2 -18 -3 -18 -17 0 -25 5 -22 13 1 5 -2 6 -7 3 -5 -4 -38 14
-73 39 -68 48 -122 91 -99 79 9 -5 12 -3 7 5 -4 6 -15 10 -23 9 -21 -4 -23 17
-7 77 7 28 15 77 18 110 5 56 5 57 -4 15 -5 -25 -12 -61 -15 -80 -5 -26 -9
-31 -15 -19 -5 9 -5 54 0 105 5 49 10 118 10 153 0 75 -2 74 103 1z m-2252
-40 c6 0 7 6 3 12 -5 7 16 -5 46 -26 56 -40 86 -65 63 -52 -7 4 -22 9 -32 11
-11 2 -32 12 -47 22 -15 9 -40 16 -56 14 -15 -1 -28 2 -28 8 0 6 -8 8 -17 5
-10 -3 -2 4 17 15 28 16 36 17 38 5 2 -8 8 -14 13 -14z m-1922 -3 c8 -11 -1
-18 -44 -36 -30 -12 -56 -22 -57 -20 -2 1 -14 -3 -28 -10 l-25 -12 24 18 c14
10 41 30 60 45 41 31 54 33 70 15z m-2655 -19 c-8 -12 10 -10 26 5 8 6 4 0 -9
-15 -14 -16 -31 -28 -38 -28 -8 0 -12 -4 -9 -9 4 -5 -8 -21 -25 -35 -17 -14
-28 -26 -24 -26 3 0 -6 -16 -21 -35 -30 -40 -23 -46 15 -12 22 19 23 19 8 1
-33 -40 -3 -34 42 8 25 24 -2 -6 -58 -67 -57 -60 -107 -109 -112 -108 -4 2 -6
-3 -3 -10 2 -7 -15 -30 -38 -52 -30 -28 -35 -31 -18 -10 14 16 27 32 30 35 8
8 6 79 -2 74 -4 -2 -10 1 -13 6 -5 8 -14 5 -28 -7 -41 -36 109 151 173 215 36
36 59 63 52 61 -7 -2 -74 -65 -148 -139 -113 -113 -134 -130 -128 -105 11 50
52 122 88 159 43 43 139 90 183 90 18 0 33 3 33 6 0 4 7 7 15 7 8 0 12 -4 9
-9z m7277 -28 c25 -9 73 -36 108 -59 50 -34 68 -54 87 -94 13 -29 24 -63 24
-77 0 -23 -4 -21 -52 26 -29 27 -64 59 -77 69 l-24 20 13 -25 c7 -14 37 -51
66 -84 65 -72 89 -122 98 -206 l7 -65 -43 50 c-23 28 -69 78 -101 112 -51 54
-63 72 -66 106 -1 4 -6 7 -12 7 -8 0 -8 -5 1 -15 32 -39 -3 -7 -75 67 l-80 83
74 -70 c41 -39 71 -62 67 -52 -3 10 -6 22 -6 27 0 5 -12 23 -27 42 -18 22 -4
13 42 -27 69 -59 72 -53 7 16 l-34 36 28 -3 c25 -2 19 6 -51 72 -86 80 -83 85
26 44z m-70 -87 c13 -16 12 -17 -3 -4 -10 7 -18 15 -18 17 0 8 8 3 21 -13z
m50 0 c13 -16 12 -17 -3 -4 -10 7 -18 15 -18 17 0 8 8 3 21 -13z m-7281 3 c0
-2 -8 -10 -17 -17 -16 -13 -17 -12 -4 4 13 16 21 21 21 13z m2122 -152 c-18
-8 -61 -17 -95 -19 l-62 -5 79 15 c44 9 82 18 85 20 2 3 9 5 15 4 6 0 -4 -7
-22 -15z m1886 -100 c21 -6 18 -10 -30 -42 -48 -33 -163 -82 -190 -82 -6 0 -2
10 9 23 11 12 24 33 28 45 13 44 114 74 183 56z m-798 -23 c0 -4 -35 -24 -77
-44 -46 -21 -69 -36 -56 -36 12 -1 55 17 95 38 l74 39 58 -19 c32 -11 74 -30
94 -43 54 -34 112 -94 112 -115 0 -10 -13 -35 -30 -56 -35 -44 -36 -46 -12
-38 34 12 -3 -17 -69 -53 -35 -19 -53 -32 -39 -29 14 4 55 24 92 45 l67 38
-10 -27 c-28 -73 -122 -117 -294 -137 -67 -8 -68 -8 70 -35 47 -9 56 -13 40
-20 -19 -8 -19 -8 2 -15 21 -6 21 -8 8 -34 -25 -48 -74 -63 -189 -57 -56 3
-112 10 -126 15 -14 6 -19 11 -11 11 10 1 7 8 -9 23 l-24 22 25 8 c16 4 6 6
-31 5 -51 -1 -56 1 -73 30 -20 35 -50 165 -45 197 3 19 5 18 20 -9 l17 -30 1
58 c0 31 -1 59 -2 61 -3 5 36 42 78 74 l29 23 -32 -16 c-48 -23 -50 -19 -12
21 38 40 102 80 157 100 42 15 102 18 102 5z m969 -43 c51 -31 111 -80 111
-90 0 -5 -17 -6 -37 -3 -29 5 -34 4 -21 -4 25 -17 104 -131 117 -171 20 -62
-20 -145 -91 -188 -44 -26 -231 -88 -294 -97 -27 -4 -56 -8 -64 -11 -8 -2 -21
0 -29 5 -16 10 2 51 23 51 8 0 29 7 47 16 l34 15 -33 -5 c-20 -4 -31 -2 -27 4
3 6 18 10 33 11 15 0 59 9 97 20 l70 18 -85 -4 c-50 -3 -79 -1 -71 4 7 5 11
13 7 19 -3 5 6 17 20 27 14 9 24 18 22 20 -2 2 -39 13 -83 25 -195 52 -247
102 -195 187 26 43 42 50 152 68 94 16 162 34 156 41 -2 2 -31 0 -64 -5 -32
-5 -79 -12 -104 -15 -43 -5 -42 -4 21 18 37 13 90 40 119 59 51 35 53 35 93
21 22 -8 56 -24 76 -36z m-1484 -18 c3 -5 -7 -22 -22 -37 -15 -14 -21 -23 -13
-19 8 4 6 0 -5 -9 -11 -9 -19 -21 -17 -26 1 -6 -2 -8 -8 -4 -6 3 -8 11 -5 16
3 5 0 6 -8 3 -21 -8 -36 17 -26 44 5 12 12 22 16 23 23 2 57 10 62 14 7 8 19
6 26 -5z m1911 -16 c21 -9 50 -13 65 -10 16 3 31 1 34 -4 3 -5 12 -7 20 -4 12
5 12 1 2 -19 -6 -14 -15 -23 -19 -21 -5 3 -8 0 -8 -6 0 -7 -6 -10 -12 -7 -7 2
-25 -2 -40 -9 -15 -8 -33 -13 -39 -12 -14 4 -53 40 -56 53 0 4 -9 12 -18 17
-13 8 -14 13 -4 24 15 18 28 18 75 -2z m769 -536 c59 -29 81 -48 55 -48 -6 0
-10 -27 -10 -61 0 -84 -18 -149 -40 -149 -16 0 -18 8 -13 83 3 45 10 91 16
102 8 16 3 26 -39 62 -27 24 -45 43 -41 43 3 0 36 -14 72 -32z m-5425 -158
c25 -19 47 -35 49 -36 2 -2 5 -29 6 -61 2 -32 16 -96 32 -143 l28 -85 135 -53
c74 -29 119 -50 100 -47 -46 8 -222 65 -237 77 -6 5 -32 57 -58 116 -27 63
-59 117 -75 132 -16 14 -36 48 -45 77 -34 109 -46 63 -19 -77 8 -45 13 -87 11
-93 -4 -12 -41 171 -53 258 l-6 50 43 -41 c24 -22 64 -56 89 -74z m7428 -27
c-21 -137 -46 -237 -47 -188 0 17 5 56 13 88 14 58 5 73 -18 31 -6 -10 -33
-43 -59 -71 -26 -29 -59 -77 -73 -107 -19 -42 -30 -55 -52 -59 -15 -3 -36 -9
-47 -12 -12 -4 -9 1 9 13 16 11 34 28 39 37 15 28 64 180 72 224 6 38 13 46
80 91 41 27 76 54 80 60 18 30 19 -2 3 -107z m-2679 10 c-20 -52 -70 -133 -90
-143 -23 -13 -24 -4 -3 46 23 55 73 124 89 124 12 0 12 -5 4 -27z m-2103 -95
l26 -51 -31 22 c-20 15 -28 27 -24 38 4 11 3 14 -5 9 -8 -4 -16 3 -22 19 -14
36 -13 37 10 25 11 -6 32 -34 46 -62z m2822 -84 c24 -5 35 -16 51 -48 31 -68
44 -160 31 -217 -11 -44 -30 -67 -30 -36 0 6 -5 19 -10 27 -7 12 -13 11 -36
-10 -24 -22 -26 -22 -19 -5 14 33 18 171 6 193 -6 12 -26 23 -48 27 -21 4 -46
14 -56 23 -13 12 -45 18 -105 22 l-87 6 65 7 c157 17 197 19 238 11z m-5531
-36 c-3 -8 -6 -5 -6 6 -1 11 2 17 5 13 3 -3 4 -12 1 -19z m2043 3 l45 -8 -45
-2 c-46 -2 -128 -15 -135 -22 -2 -2 -6 -24 -10 -49 -3 -25 -15 -62 -25 -82
l-20 -38 28 0 c15 0 34 -4 42 -10 17 -11 9 -15 -54 -28 -38 -7 -39 -8 -39 -52
0 -43 1 -45 38 -56 47 -13 28 -24 -40 -24 -34 0 -47 -5 -55 -19 -26 -49 -1
-131 54 -178 29 -24 29 -25 6 -18 -14 4 -46 18 -72 31 l-47 24 5 83 c5 70 9
85 31 105 13 12 34 22 45 22 21 0 21 0 2 21 -16 18 -19 36 -18 108 1 85 16
164 36 189 12 14 154 16 228 3z m2944 -60 c4 -5 -11 -12 -31 -15 -162 -26
-1011 -36 -1132 -14 -59 11 -20 13 359 20 234 4 463 9 510 11 192 7 289 7 294
-2z m-1787 -12 l402 -11 143 -37 c78 -21 136 -40 128 -44 -8 -3 -1 -6 17 -6
17 -1 35 -5 38 -11 8 -13 -18 -13 -83 0 -120 22 -456 55 -995 95 -48 4 -100
11 -115 15 -24 7 -22 8 18 9 25 1 226 -4 447 -10z m2419 -273 c34 -34 47 -86
22 -86 -7 0 -5 -5 5 -11 22 -13 24 -115 3 -144 -13 -18 -15 -16 -23 25 -7 36
-13 44 -29 42 -10 -1 -35 -5 -54 -8 l-35 -5 30 17 c47 26 65 45 65 69 0 30
-44 53 -70 37 -20 -12 -30 1 -30 38 0 20 -33 29 -119 31 -53 2 -51 3 34 14
151 21 162 20 201 -19z m81 -303 c8 -20 -4 -28 -22 -13 -12 10 -27 10 -77 -3
-35 -8 -83 -18 -108 -21 l-45 -6 55 21 c125 46 185 53 197 22z m20 -156 c35
-45 41 -61 45 -115 2 -34 3 -61 2 -59 -4 4 -91 227 -89 227 2 0 21 -24 42 -53z
m-4092 -154 c-36 -71 -75 -139 -86 -153 -19 -25 -19 -25 0 25 36 95 70 165
101 210 59 85 51 45 -15 -82z"/>
<path d="M5565 8079 c-4 -6 -5 -12 -2 -15 2 -3 7 2 10 11 7 17 1 20 -8 4z"/>
<path d="M5253 7923 c0 -16 -1 -16 33 2 l29 15 -31 -2 c-17 -1 -31 -8 -31 -15z"/>
<path d="M4717 7734 c-4 -4 -7 -14 -7 -23 0 -11 3 -12 11 -4 6 6 10 16 7 23
-2 6 -7 8 -11 4z"/>
<path d="M5553 7705 c0 -8 4 -12 9 -9 5 3 6 10 3 15 -9 13 -12 11 -12 -6z"/>
<path d="M5685 7614 c-18 -16 -22 -22 -9 -15 18 9 53 42 43 41 -2 -1 -17 -12
-34 -26z"/>
<path d="M5680 7576 c0 -2 9 -6 20 -9 11 -3 18 -1 14 4 -5 9 -34 13 -34 5z"/>
<path d="M3565 6018 c-2 -7 -9 -35 -15 -63 -6 -27 -15 -54 -21 -61 -5 -6 37 5
95 25 57 20 102 39 100 42 -2 4 -25 21 -51 38 -48 32 -100 41 -108 19z"/>
<path d="M3323 5893 c-11 -21 -24 -53 -28 -71 -7 -32 -6 -34 16 -27 13 4 36
14 51 21 23 12 25 17 18 46 -10 44 -21 68 -29 68 -4 0 -17 -17 -28 -37z"/>
<path d="M4760 5646 c0 -2 8 -10 18 -17 15 -13 16 -12 3 4 -13 16 -21 21 -21
13z"/>
<path d="M7634 6201 c17 -17 34 -31 39 -31 14 0 -23 39 -48 52 -14 8 -12 2 9
-21z"/>
<path d="M6398 6193 c7 -3 16 -2 19 1 4 3 -2 6 -13 5 -11 0 -14 -3 -6 -6z"/>
<path d="M6358 6183 c7 -3 16 -2 19 1 4 3 -2 6 -13 5 -11 0 -14 -3 -6 -6z"/>
<path d="M6310 6170 c-8 -5 -10 -10 -5 -10 6 0 17 5 25 10 8 5 11 10 5 10 -5
0 -17 -5 -25 -10z"/>
<path d="M7040 5860 c6 -11 13 -20 16 -20 2 0 0 9 -6 20 -6 11 -13 20 -16 20
-2 0 0 -9 6 -20z"/>
<path d="M5504 5552 c-68 -46 -125 -94 -119 -100 3 -3 15 4 28 15 12 11 53 41
90 67 38 25 62 46 55 46 -7 0 -31 -13 -54 -28z"/>
<path d="M5510 4226 c0 -2 8 -10 18 -17 15 -13 16 -12 3 4 -13 16 -21 21 -21
13z"/>
<path d="M2300 4579 c0 -5 5 -7 10 -4 6 3 10 8 10 11 0 2 -4 4 -10 4 -5 0 -10
-5 -10 -11z"/>
<path d="M2221 4164 c0 -11 3 -14 6 -6 3 7 2 16 -1 19 -3 4 -6 -2 -5 -13z"/>
<path d="M6130 3936 c0 -2 8 -10 18 -17 15 -13 16 -12 3 4 -13 16 -21 21 -21
13z"/>
<path d="M4615 3450 c-5 -8 69 -23 200 -39 44 -6 96 -13 115 -16 l35 -5 -32
15 c-51 24 -309 60 -318 45z"/>
<path d="M6100 3396 c0 -9 30 -14 35 -6 4 6 -3 10 -14 10 -12 0 -21 -2 -21 -4z"/>
</g>
</svg>
